<?xml version="1.0" encoding="UTF-8" standalone="yes"?><svg xmlns="http://www.w3.org/2000/svg" xmlns:xlink="http://www.w3.org/1999/xlink" height="2900px" style="width:3375px;height:2900px;" version="1.1" viewBox="0 0 3375 2900" width="3375px"><defs><filter height="300%" id="f1" width="300%" x="-1" y="-1"><feGaussianBlur result="blurOut" stdDeviation="6.25"/><feColorMatrix in="blurOut" result="blurOut2" type="matrix" values="0 0 0 0 0 0 0 0 0 0 0 0 0 0 0 0 0 0 .4 0"/><feOffset dx="12.5" dy="12.5" in="blurOut2" result="blurOut3"/><feBlend in="SourceGraphic" in2="blurOut3" mode="normal"/></filter></defs><g><text fill="#000000" font-family="sans-serif" font-size="43.75" font-weight="bold" lengthAdjust="spacingAndGlyphs" textLength="828.125" x="1280.4688" y="73.5474">Sequence For Call CDR Logging Only</text><rect fill="#FFFFFF" filter="url(#f1)" height="192.4255" style="stroke: #000000; stroke-width: 6.25;" width="1465.625" x="1882.8125" y="848.5291"/><rect fill="#FFFFFF" height="46.7346" style="stroke: none; stroke-width: 3.125;" width="1465.625" x="1882.8125" y="994.22"/><rect fill="#FFFFFF" filter="url(#f1)" height="987.6221" style="stroke: #000000; stroke-width: 6.25;" width="623.4375" x="1882.8125" y="1308.5205"/><rect fill="#FFFFFF" height="311.1755" style="stroke: none; stroke-width: 3.125;" width="623.4375" x="1882.8125" y="1362.616"/><rect fill="#FFFFFF" height="311.1755" style="stroke: none; stroke-width: 3.125;" width="623.4375" x="1882.8125" y="1673.7915"/><rect fill="#FFFFFF" height="311.1755" style="stroke: none; stroke-width: 3.125;" width="623.4375" x="1882.8125" y="1984.967"/><rect fill="#90EE90" height="2790.6494" style="stroke: #A80036; stroke-width: 3.125;" width="412.5" x="12.5" y="107.7759"/><text fill="#000000" font-family="sans-serif" font-size="40.625" font-weight="bold" lengthAdjust="spacingAndGlyphs" textLength="393.75" x="21.875" y="147.052">Request Managers</text><rect fill="#ADD8E6" height="2790.6494" style="stroke: #A80036; stroke-width: 3.125;" width="546.875" x="984.375" y="107.7759"/><text fill="#000000" font-family="sans-serif" font-size="40.625" font-weight="bold" lengthAdjust="spacingAndGlyphs" textLength="528.125" x="993.75" y="147.052">Request Handeling Actor</text><rect fill="#FFFFE0" height="2790.6494" style="stroke: #A80036; stroke-width: 3.125;" width="453.125" x="1901.5625" y="107.7759"/><text fill="#000000" font-family="sans-serif" font-size="40.625" font-weight="bold" lengthAdjust="spacingAndGlyphs" textLength="287.5" x="1984.375" y="147.052">DataRecorder</text><rect fill="#FFB6C1" height="2790.6494" style="stroke: #A80036; stroke-width: 3.125;" width="540.625" x="2789.0625" y="107.7759"/><text fill="#000000" font-family="sans-serif" font-size="40.625" font-weight="bold" lengthAdjust="spacingAndGlyphs" textLength="96.875" x="3010.9375" y="147.052">DAO</text><line style="stroke: #A80036; stroke-width: 3.125; stroke-dasharray: 5.0,5.0;" x1="218.75" x2="218.75" y1="429.0222" y2="2628.1494"/><line style="stroke: #A80036; stroke-width: 3.125; stroke-dasharray: 5.0,5.0;" x1="1257.8125" x2="1257.8125" y1="429.0222" y2="2628.1494"/><line style="stroke: #A80036; stroke-width: 3.125; stroke-dasharray: 5.0,5.0;" x1="2126.5625" x2="2126.5625" y1="429.0222" y2="2628.1494"/><line style="stroke: #A80036; stroke-width: 3.125; stroke-dasharray: 5.0,5.0;" x1="3057.8125" x2="3057.8125" y1="429.0222" y2="2628.1494"/><text fill="#000000" font-family="sans-serif" font-size="43.75" lengthAdjust="spacingAndGlyphs" textLength="268.75" x="75" y="419.7937">CallManager</text><ellipse cx="218.75" cy="199.3713" fill="#FEFECE" filter="url(#f1)" rx="25" ry="25" style="stroke: #A80036; stroke-width: 6.25;"/><path d="M218.75,224.3713 L218.75,308.7463 M178.125,249.3713 L259.375,249.3713 M218.75,308.7463 L178.125,355.6213 M218.75,308.7463 L259.375,355.6213 " fill="#FEFECE" filter="url(#f1)" style="stroke: #A80036; stroke-width: 6.25;"/><text fill="#000000" font-family="sans-serif" font-size="43.75" lengthAdjust="spacingAndGlyphs" textLength="268.75" x="75" y="2667.3218">CallManager</text><ellipse cx="218.75" cy="2707.8003" fill="#FEFECE" filter="url(#f1)" rx="25" ry="25" style="stroke: #A80036; stroke-width: 6.25;"/><path d="M218.75,2732.8003 L218.75,2817.1753 M178.125,2757.8003 L259.375,2757.8003 M218.75,2817.1753 L178.125,2864.0503 M218.75,2817.1753 L259.375,2864.0503 " fill="#FEFECE" filter="url(#f1)" style="stroke: #A80036; stroke-width: 6.25;"/><rect fill="#FEFECE" filter="url(#f1)" height="95.2759" style="stroke: #A80036; stroke-width: 4.6875;" width="125" x="1189.0625" y="318.1213"/><text fill="#000000" font-family="sans-serif" font-size="43.75" lengthAdjust="spacingAndGlyphs" textLength="81.25" x="1210.9375" y="382.2937">Call</text><rect fill="#FEFECE" filter="url(#f1)" height="95.2759" style="stroke: #A80036; stroke-width: 4.6875;" width="125" x="1189.0625" y="2625.0244"/><text fill="#000000" font-family="sans-serif" font-size="43.75" lengthAdjust="spacingAndGlyphs" textLength="81.25" x="1210.9375" y="2689.1968">Call</text><rect fill="#FEFECE" filter="url(#f1)" height="95.2759" style="stroke: #A80036; stroke-width: 4.6875;" width="415.625" x="1914.0625" y="318.1213"/><text fill="#000000" font-family="sans-serif" font-size="43.75" lengthAdjust="spacingAndGlyphs" textLength="371.875" x="1935.9375" y="382.2937">CallDataRecorder</text><rect fill="#FEFECE" filter="url(#f1)" height="95.2759" style="stroke: #A80036; stroke-width: 4.6875;" width="415.625" x="1914.0625" y="2625.0244"/><text fill="#000000" font-family="sans-serif" font-size="43.75" lengthAdjust="spacingAndGlyphs" textLength="371.875" x="1935.9375" y="2689.1968">CallDataRecorder</text><rect fill="#FEFECE" filter="url(#f1)" height="95.2759" style="stroke: #A80036; stroke-width: 4.6875;" width="503.125" x="2801.5625" y="318.1213"/><text fill="#000000" font-family="sans-serif" font-size="43.75" lengthAdjust="spacingAndGlyphs" textLength="459.375" x="2823.4375" y="382.2937">CallDetailRecordsDao</text><rect fill="#FEFECE" filter="url(#f1)" height="95.2759" style="stroke: #A80036; stroke-width: 4.6875;" width="503.125" x="2801.5625" y="2625.0244"/><text fill="#000000" font-family="sans-serif" font-size="43.75" lengthAdjust="spacingAndGlyphs" textLength="459.375" x="2823.4375" y="2689.1968">CallDetailRecordsDao</text><polygon fill="#A80036" points="1220.3125,513.3972,1251.5625,525.8972,1220.3125,538.3972,1232.8125,525.8972" style="stroke: #A80036; stroke-width: 3.125;"/><line style="stroke: #A80036; stroke-width: 3.125;" x1="218.75" x2="1239.0625" y1="525.8972" y2="525.8972"/><text fill="#000000" font-family="sans-serif" font-size="40.625" lengthAdjust="spacingAndGlyphs" textLength="721.875" x="240.625" y="512.0483">Creates a new Call(CallDataRecorder)</text><polygon fill="#A80036" points="2090.625,604.9927,2121.875,617.4927,2090.625,629.9927,2103.125,617.4927" style="stroke: #A80036; stroke-width: 3.125;"/><line style="stroke: #A80036; stroke-width: 3.125;" x1="1257.8125" x2="2109.375" y1="617.4927" y2="617.4927"/><text fill="#000000" font-family="sans-serif" font-size="40.625" lengthAdjust="spacingAndGlyphs" textLength="159.375" x="1279.6875" y="603.6438">Observe</text><polygon fill="#A80036" points="1292.1875,696.5881,1260.9375,709.0881,1292.1875,721.5881,1279.6875,709.0881" style="stroke: #A80036; stroke-width: 3.125;"/><line style="stroke: #A80036; stroke-width: 3.125;" x1="1273.4375" x2="2125" y1="709.0881" y2="709.0881"/><text fill="#000000" font-family="sans-serif" font-size="40.625" lengthAdjust="spacingAndGlyphs" textLength="159.375" x="1310.9375" y="695.2393">Observe</text><polygon fill="#A80036" points="2090.625,788.1836,2121.875,800.6836,2090.625,813.1836,2103.125,800.6836" style="stroke: #A80036; stroke-width: 3.125;"/><line style="stroke: #A80036; stroke-width: 3.125;" x1="1257.8125" x2="2109.375" y1="800.6836" y2="800.6836"/><text fill="#000000" font-family="sans-serif" font-size="40.625" lengthAdjust="spacingAndGlyphs" textLength="153.125" x="1279.6875" y="786.8347">CallInfo</text><rect fill="none" height="192.4255" style="stroke: #000000; stroke-width: 6.25;" width="1465.625" x="1882.8125" y="848.5291"/><polygon fill="#EEEEEE" points="1882.8125,848.5291,2076.5625,848.5291,2076.5625,870.4041,2045.3125,901.6541,1882.8125,901.6541,1882.8125,848.5291" style="stroke: #000000; stroke-width: 6.25;"/><text fill="#000000" font-family="sans-serif" font-size="40.625" font-weight="bold" lengthAdjust="spacingAndGlyphs" textLength="53.125" x="1929.6875" y="890.9302">alt</text><text fill="#000000" font-family="sans-serif" font-size="34.375" font-weight="bold" lengthAdjust="spacingAndGlyphs" textLength="375" x="2123.4375" y="888.0127">[If it is first CallInfo]</text><polygon fill="#A80036" points="3021.875,955.7495,3053.125,968.2495,3021.875,980.7495,3034.375,968.2495" style="stroke: #A80036; stroke-width: 3.125;"/><line style="stroke: #A80036; stroke-width: 3.125;" x1="2128.125" x2="3040.625" y1="968.2495" y2="968.2495"/><text fill="#000000" font-family="sans-serif" font-size="40.625" lengthAdjust="spacingAndGlyphs" textLength="856.25" x="2150" y="954.4006">Insert a new CDR record with given params.</text><line style="stroke: #000000; stroke-width: 3.125; stroke-dasharray: 2.0,2.0;" x1="1882.8125" x2="3348.4375" y1="997.345" y2="997.345"/><text fill="#000000" font-family="sans-serif" font-size="34.375" font-weight="bold" lengthAdjust="spacingAndGlyphs" textLength="225" x="1898.4375" y="1030.5786">[Do Nothing]</text><polygon fill="#A80036" points="2090.625,1115.9546,2121.875,1128.4546,2090.625,1140.9546,2103.125,1128.4546" style="stroke: #A80036; stroke-width: 3.125;"/><line style="stroke: #A80036; stroke-width: 3.125;" x1="1257.8125" x2="2109.375" y1="1128.4546" y2="1128.4546"/><text fill="#000000" font-family="sans-serif" font-size="40.625" lengthAdjust="spacingAndGlyphs" textLength="503.125" x="1279.6875" y="1114.6057">CallStateChanged (Status)</text><line style="stroke: #A80036; stroke-width: 3.125;" x1="2128.125" x2="2259.375" y1="1221.0205" y2="1221.0205"/><line style="stroke: #A80036; stroke-width: 3.125;" x1="2259.375" x2="2259.375" y1="1221.0205" y2="1261.6455"/><line style="stroke: #A80036; stroke-width: 3.125;" x1="2131.25" x2="2259.375" y1="1261.6455" y2="1261.6455"/><polygon fill="#A80036" points="2162.5,1249.1455,2131.25,1261.6455,2162.5,1274.1455,2150,1261.6455" style="stroke: #A80036; stroke-width: 3.125;"/><text fill="#000000" font-family="sans-serif" font-size="40.625" lengthAdjust="spacingAndGlyphs" textLength="425" x="2150" y="1206.2012">SetCDRStatus (Status)</text><rect fill="none" height="987.6221" style="stroke: #000000; stroke-width: 6.25;" width="623.4375" x="1882.8125" y="1308.5205"/><polygon fill="#EEEEEE" points="1882.8125,1308.5205,2076.5625,1308.5205,2076.5625,1330.3955,2045.3125,1361.6455,1882.8125,1361.6455,1882.8125,1308.5205" style="stroke: #000000; stroke-width: 6.25;"/><text fill="#000000" font-family="sans-serif" font-size="40.625" font-weight="bold" lengthAdjust="spacingAndGlyphs" textLength="53.125" x="1929.6875" y="1350.9216">alt</text><text fill="#000000" font-family="sans-serif" font-size="34.375" font-weight="bold" lengthAdjust="spacingAndGlyphs" textLength="171.875" x="2123.4375" y="1348.0042">[Status ??]</text><line style="stroke: #000000; stroke-width: 3.125; stroke-dasharray: 2.0,2.0;" x1="1882.8125" x2="2506.25" y1="1365.741" y2="1365.741"/><text fill="#000000" font-family="sans-serif" font-size="34.375" font-weight="bold" lengthAdjust="spacingAndGlyphs" textLength="115.625" x="1898.4375" y="1398.9746">[BUSY]</text><line style="stroke: #A80036; stroke-width: 3.125;" x1="2128.125" x2="2259.375" y1="1475.946" y2="1475.946"/><line style="stroke: #A80036; stroke-width: 3.125;" x1="2259.375" x2="2259.375" y1="1475.946" y2="1516.571"/><line style="stroke: #A80036; stroke-width: 3.125;" x1="2131.25" x2="2259.375" y1="1516.571" y2="1516.571"/><polygon fill="#A80036" points="2162.5,1504.071,2131.25,1516.571,2162.5,1529.071,2150,1516.571" style="stroke: #A80036; stroke-width: 3.125;"/><text fill="#000000" font-family="sans-serif" font-size="40.625" lengthAdjust="spacingAndGlyphs" textLength="231.25" x="2150" y="1461.1267">setDuration</text><line style="stroke: #A80036; stroke-width: 3.125;" x1="2128.125" x2="2259.375" y1="1608.1665" y2="1608.1665"/><line style="stroke: #A80036; stroke-width: 3.125;" x1="2259.375" x2="2259.375" y1="1608.1665" y2="1648.7915"/><line style="stroke: #A80036; stroke-width: 3.125;" x1="2131.25" x2="2259.375" y1="1648.7915" y2="1648.7915"/><polygon fill="#A80036" points="2162.5,1636.2915,2131.25,1648.7915,2162.5,1661.2915,2150,1648.7915" style="stroke: #A80036; stroke-width: 3.125;"/><text fill="#000000" font-family="sans-serif" font-size="40.625" lengthAdjust="spacingAndGlyphs" textLength="318.75" x="2150" y="1593.3472">setRingDuration</text><line style="stroke: #000000; stroke-width: 3.125; stroke-dasharray: 2.0,2.0;" x1="1882.8125" x2="2506.25" y1="1676.9165" y2="1676.9165"/><text fill="#000000" font-family="sans-serif" font-size="34.375" font-weight="bold" lengthAdjust="spacingAndGlyphs" textLength="265.625" x="1898.4375" y="1710.1501">[IN_PROGRESS]</text><line style="stroke: #A80036; stroke-width: 3.125;" x1="2128.125" x2="2259.375" y1="1787.1216" y2="1787.1216"/><line style="stroke: #A80036; stroke-width: 3.125;" x1="2259.375" x2="2259.375" y1="1787.1216" y2="1827.7466"/><line style="stroke: #A80036; stroke-width: 3.125;" x1="2131.25" x2="2259.375" y1="1827.7466" y2="1827.7466"/><polygon fill="#A80036" points="2162.5,1815.2466,2131.25,1827.7466,2162.5,1840.2466,2150,1827.7466" style="stroke: #A80036; stroke-width: 3.125;"/><text fill="#000000" font-family="sans-serif" font-size="40.625" lengthAdjust="spacingAndGlyphs" textLength="246.875" x="2150" y="1772.3022">setStartTime</text><line style="stroke: #A80036; stroke-width: 3.125;" x1="2128.125" x2="2259.375" y1="1919.342" y2="1919.342"/><line style="stroke: #A80036; stroke-width: 3.125;" x1="2259.375" x2="2259.375" y1="1919.342" y2="1959.967"/><line style="stroke: #A80036; stroke-width: 3.125;" x1="2131.25" x2="2259.375" y1="1959.967" y2="1959.967"/><polygon fill="#A80036" points="2162.5,1947.467,2131.25,1959.967,2162.5,1972.467,2150,1959.967" style="stroke: #A80036; stroke-width: 3.125;"/><text fill="#000000" font-family="sans-serif" font-size="40.625" lengthAdjust="spacingAndGlyphs" textLength="293.75" x="2150" y="1904.5227">setAnsweredBy</text><line style="stroke: #000000; stroke-width: 3.125; stroke-dasharray: 2.0,2.0;" x1="1882.8125" x2="2506.25" y1="1988.092" y2="1988.092"/><text fill="#000000" font-family="sans-serif" font-size="34.375" font-weight="bold" lengthAdjust="spacingAndGlyphs" textLength="246.875" x="1898.4375" y="2021.3257">[COMPLETED]</text><line style="stroke: #A80036; stroke-width: 3.125;" x1="2128.125" x2="2259.375" y1="2098.2971" y2="2098.2971"/><line style="stroke: #A80036; stroke-width: 3.125;" x1="2259.375" x2="2259.375" y1="2098.2971" y2="2138.9221"/><line style="stroke: #A80036; stroke-width: 3.125;" x1="2131.25" x2="2259.375" y1="2138.9221" y2="2138.9221"/><polygon fill="#A80036" points="2162.5,2126.4221,2131.25,2138.9221,2162.5,2151.4221,2150,2138.9221" style="stroke: #A80036; stroke-width: 3.125;"/><text fill="#000000" font-family="sans-serif" font-size="40.625" lengthAdjust="spacingAndGlyphs" textLength="228.125" x="2150" y="2083.4778">setEndTime</text><line style="stroke: #A80036; stroke-width: 3.125;" x1="2128.125" x2="2259.375" y1="2230.5176" y2="2230.5176"/><line style="stroke: #A80036; stroke-width: 3.125;" x1="2259.375" x2="2259.375" y1="2230.5176" y2="2271.1426"/><line style="stroke: #A80036; stroke-width: 3.125;" x1="2131.25" x2="2259.375" y1="2271.1426" y2="2271.1426"/><polygon fill="#A80036" points="2162.5,2258.6426,2131.25,2271.1426,2162.5,2283.6426,2150,2271.1426" style="stroke: #A80036; stroke-width: 3.125;"/><text fill="#000000" font-family="sans-serif" font-size="40.625" lengthAdjust="spacingAndGlyphs" textLength="231.25" x="2150" y="2215.6982">setDuration</text><polygon fill="#A80036" points="3021.875,2371.1426,3053.125,2383.6426,3021.875,2396.1426,3034.375,2383.6426" style="stroke: #A80036; stroke-width: 3.125;"/><line style="stroke: #A80036; stroke-width: 3.125;" x1="2128.125" x2="3040.625" y1="2383.6426" y2="2383.6426"/><text fill="#000000" font-family="sans-serif" font-size="40.625" lengthAdjust="spacingAndGlyphs" textLength="234.375" x="2150" y="2369.7937">Update CDR</text><polygon fill="#A80036" points="2090.625,2556.488,2121.875,2568.988,2090.625,2581.488,2103.125,2568.988" style="stroke: #A80036; stroke-width: 3.125;"/><line style="stroke: #A80036; stroke-width: 3.125;" x1="1257.8125" x2="2109.375" y1="2568.988" y2="2568.988"/><text fill="#000000" font-family="sans-serif" font-size="40.625" lengthAdjust="spacingAndGlyphs" textLength="290.625" x="1279.6875" y="2461.3892">UpdateCallInfo</text><text fill="#000000" font-family="sans-serif" font-size="40.625" lengthAdjust="spacingAndGlyphs" textLength="434.375" x="1292.1875" y="2509.2346">for any special update</text><text fill="#000000" font-family="sans-serif" font-size="40.625" lengthAdjust="spacingAndGlyphs" textLength="603.125" x="1279.6875" y="2557.0801">(any column other than status)</text></g></svg>